<?xml version="1.0" encoding="iso-8859-1"?>
<!-- Generator: Adobe Illustrator 19.0.0, SVG Export Plug-In . SVG Version: 6.00 Build 0)  -->
<svg version="1.1" id="Capa_1" xmlns="http://www.w3.org/2000/svg" xmlns:xlink="http://www.w3.org/1999/xlink" x="0px" y="0px"
	 viewBox="0 0 418 418" style="enable-background:new 0 0 418 418;" xml:space="preserve">
<g>
	<g>
		<path d="M417.457,230.42L352.151,58.535c-5.916-16.267-21.352-27.114-38.661-27.167H104.51
			C87.201,31.42,71.764,42.268,65.849,58.535L0.543,230.42c-0.429,1.169-0.607,2.415-0.522,3.657v110.237
			c-0.002,23.169,18.628,42.032,41.796,42.318h334.367c23.167-0.286,41.798-19.149,41.796-42.318V234.077
			C418.064,232.835,417.886,231.589,417.457,230.42z M85.179,65.849c3.138-7.993,10.747-13.34,19.331-13.584h208.98
			c8.584,0.244,16.192,5.59,19.331,13.584l60.082,158.824h-48.065v-70.531c0-5.747-4.18-7.837-9.927-7.837h-21.42V91.449
			c0-5.747-4.18-7.837-9.927-7.837H114.437c-5.747,0-9.927,2.09-9.927,7.837v54.857H88.314c-5.747,0-9.927,2.09-9.927,7.837v70.531
			h-53.29L85.179,65.849z M293.114,167.204h30.825v57.469h-44.931c-5.044-0.102-9.441,3.416-10.449,8.359
			c0,2.09-10.449,49.633-59.559,49.633s-59.559-47.543-59.559-49.633c-1.008-4.944-5.405-8.461-10.449-8.359H99.286v-57.469H293.114
			z M125.408,146.306V104.51h167.184v41.796H125.408z M397.081,344.314c0.003,11.629-9.272,21.137-20.898,21.42H41.816
			c-11.626-0.284-20.901-9.791-20.898-21.42v-98.743h110.237c7.837,23.51,30.825,57.992,77.845,57.992s70.008-34.482,77.845-57.992
			h110.237V344.314z"/>
	</g>
</g>
<g>
</g>
<g>
</g>
<g>
</g>
<g>
</g>
<g>
</g>
<g>
</g>
<g>
</g>
<g>
</g>
<g>
</g>
<g>
</g>
<g>
</g>
<g>
</g>
<g>
</g>
<g>
</g>
<g>
</g>
</svg>
