<?xml version="1.0" encoding="iso-8859-1"?>
<!-- Generator: Adobe Illustrator 19.0.0, SVG Export Plug-In . SVG Version: 6.00 Build 0)  -->
<svg xmlns="http://www.w3.org/2000/svg" xmlns:xlink="http://www.w3.org/1999/xlink" version="1.1" id="Layer_1" x="0px" y="0px" viewBox="0 0 512 512" style="enable-background:new 0 0 512 512;" xml:space="preserve" width="512" height="512">
<g>
	<g>
		<path d="M497.851,172.868l-16.419-18.454c-5.381-6.047-12.821-9.634-20.95-10.101c-8.119-0.459-15.901,2.24-21.913,7.606    l-18.453,16.413c-0.002,0.001-0.003,0.002-0.004,0.003l-14.379,12.792V67.783c0-22.185-18.039-40.232-40.21-40.232H264.056    h-21.956C237.683,11.68,223.089,0,205.816,0c-17.26,0-31.843,11.68-36.258,27.551h-21.955H46.71    c-22.172,0-40.21,18.048-40.21,40.232v162.259c0,5.562,4.509,10.071,10.071,10.071c5.562,0,10.071-4.509,10.071-10.071V67.783    c0-11.078,9.003-20.091,20.069-20.091h90.823v29.284l-62.579-0.008c-13.799,0-25.025,11.238-25.025,25.051v338.179    c0,13.798,11.226,25.023,25.025,25.023h260.487c13.815,0,25.055-11.226,25.055-25.023V335.68l25.096-22.322v158.438    c0,11.062-9.003,20.062-20.069,20.062H46.71c-11.066,0-20.069-9-20.069-20.062V309.881c0-5.562-4.509-10.071-10.071-10.071    c-5.561,0-10.071,4.509-10.071,10.071v161.916C6.5,493.965,24.539,512,46.71,512h318.813c22.172,0,40.21-18.035,40.21-40.203    V295.443l71.167-63.3c0.002-0.002,0.003-0.003,0.005-0.004l18.451-16.411c6.036-5.37,9.62-12.798,10.091-20.918    C505.918,186.695,503.221,178.902,497.851,172.868z M274.127,47.692h91.396c11.066,0,20.069,9.013,20.069,20.091v131.262    l-25.096,22.325v-83.678c0-2.644-1.077-5.257-2.952-7.124l-50.663-50.625c-1.868-1.87-4.476-2.947-7.117-2.947l-25.637-0.003    V47.692z M326.1,127.622h-11.354c-2.663,0-4.913-2.249-4.913-4.91v-11.344L326.1,127.622z M157.674,47.692h20.586    c5.562,0,10.071-4.509,10.071-10.071c0-9.638,7.843-17.48,17.485-17.48c9.657,0,17.513,7.842,17.513,17.48    c0,5.562,4.509,10.071,10.07,10.071h20.586v29.299l-96.311-0.012V47.692z M340.354,440.199c0,2.646-2.249,4.881-4.913,4.881    H74.955c-2.647,0-4.884-2.235-4.884-4.881V102.02c0-2.662,2.236-4.91,4.882-4.91l72.27,0.009c0.127,0.004,0.252,0.019,0.38,0.019    h116.453c0.03,0,0.058-0.004,0.088-0.004l25.547,0.003v25.574c0,13.813,11.239,25.051,25.054,25.051h25.608v91.526l-95.507,84.964    c-0.012,0.011-0.022,0.023-0.034,0.034c-0.855,0.768-1.54,1.653-2.069,2.605c-0.019,0.035-0.045,0.065-0.064,0.1    c-0.027,0.05-0.046,0.104-0.072,0.154c-0.124,0.238-0.236,0.48-0.339,0.726c-0.026,0.062-0.06,0.119-0.085,0.181l-24.369,61.236    H107.304c-5.562,0-10.07,4.509-10.07,10.071c0,5.562,4.508,10.071,10.07,10.071h117.333c0.003,0,0.006,0,0.009,0    c0.011,0,0.022-0.002,0.033-0.002c0.375-0.001,0.745-0.026,1.11-0.067c0.039-0.004,0.079-0.007,0.118-0.012    c0.083-0.011,0.167-0.031,0.251-0.044c0.312-0.047,0.619-0.107,0.921-0.183c0.057-0.014,0.115-0.019,0.172-0.034l70.267-18.826    c0.001,0,0.002-0.001,0.003-0.001c0.699-0.187,1.38-0.458,2.035-0.8c0.045-0.02,0.09-0.039,0.133-0.062    c0.043-0.023,0.083-0.051,0.125-0.077c0.237-0.133,0.469-0.277,0.697-0.43c0.057-0.037,0.117-0.068,0.173-0.106    c0.024-0.017,0.045-0.037,0.068-0.054c0.283-0.202,0.561-0.418,0.827-0.654c0.008-0.007,0.017-0.013,0.025-0.02l1.149-1.022    l37.6-33.433V440.199z M254.864,350.666l10.818,12.162c0.006,0.007,0.011,0.015,0.017,0.021c0.005,0.006,0.011,0.011,0.017,0.017    l10.822,12.166l-35.115,9.408L254.864,350.666z M389.269,283.131c-0.036,0.029-0.068,0.062-0.103,0.092l-93.422,83.095    l-8.324-9.358l45.315-40.455c4.149-3.704,4.51-10.071,0.806-14.22c-3.705-4.15-10.07-4.51-14.219-0.806l-45.289,40.431l-8.273-9.3    l91.359-81.267c0.027-0.024,0.049-0.051,0.076-0.075l68.784-61.191l8.418,9.457l-54.752,48.636    c-4.158,3.694-4.535,10.06-0.841,14.218c1.99,2.24,4.755,3.383,7.533,3.383c2.379,0,4.767-0.838,6.685-2.542l54.768-48.65    l8.198,9.21L389.269,283.131z M485.339,193.644c-0.159,2.745-1.356,5.243-3.37,7.034l-10.934,9.725l-30.008-33.713l10.942-9.732    c2.007-1.793,4.617-2.696,7.358-2.536c2.751,0.158,5.257,1.359,7.057,3.381l16.419,18.453    C484.598,188.273,485.499,190.896,485.339,193.644z"/>
		<path d="M107.304,360.445h79.194c5.562,0,10.07-4.509,10.07-10.071c0-5.562-4.509-10.071-10.07-10.071h-79.194    c-5.562,0-10.07,4.509-10.07,10.071C97.233,355.936,101.742,360.445,107.304,360.445z"/>
		<path d="M107.304,311.429h117.342c5.562,0,10.07-4.509,10.07-10.071c0-5.562-4.509-10.071-10.07-10.071H107.304    c-5.562,0-10.07,4.509-10.07,10.071C97.233,306.92,101.742,311.429,107.304,311.429z"/>
		<path d="M107.304,262.412h180.575c5.562,0,10.071-4.509,10.071-10.071s-4.509-10.071-10.071-10.071H107.304    c-5.562,0-10.07,4.509-10.07,10.071S101.742,262.412,107.304,262.412z"/>
		<path d="M107.304,213.424h180.575c5.562,0,10.071-4.509,10.071-10.071s-4.509-10.071-10.071-10.071H107.304    c-5.562,0-10.07,4.509-10.07,10.071S101.742,213.424,107.304,213.424z"/>
		<path d="M16.571,280.032c5.562,0,10.071-4.509,10.071-10.071v-0.171c0-5.562-4.509-10.071-10.071-10.071    c-5.561,0-10.071,4.509-10.071,10.071v0.171C6.5,275.523,11.009,280.032,16.571,280.032z"/>
		<path d="M348.942,275.456l-0.144,0.143c-3.939,3.926-3.95,10.303-0.024,14.243c1.968,1.974,4.55,2.961,7.133,2.961    c2.572,0,5.144-0.979,7.109-2.938l0.144-0.143c3.939-3.926,3.95-10.303,0.024-14.242    C359.258,271.542,352.881,271.529,348.942,275.456z"/>
		<path d="M107.304,164.408h31.288c5.562,0,10.07-4.509,10.07-10.071s-4.509-10.071-10.07-10.071h-31.288    c-5.562,0-10.07,4.509-10.07,10.071S101.742,164.408,107.304,164.408z"/>
	</g>
</g>















</svg>
